<svg width="18" height="18" viewBox="0 0 18 18" fill="none" xmlns="http://www.w3.org/2000/svg">
<path d="M3.88727 17.4927V15.549H7.77454V12.5364C6.98089 12.3582 6.27227 12.0222 5.64869 11.5281C5.02511 11.0341 4.56754 10.4146 4.276 9.66955C3.06122 9.52377 2.04487 8.99332 1.22692 8.07819C0.408973 7.16307 0 6.09002 0 4.85905V3.88723C0 3.35273 0.190314 2.89517 0.570943 2.51454C0.951571 2.13391 1.40914 1.9436 1.94363 1.9436H3.88727V-3.8147e-05H13.6054V1.9436H15.5491C16.0836 1.9436 16.5411 2.13391 16.9218 2.51454C17.3024 2.89517 17.4927 3.35273 17.4927 3.88723V4.85905C17.4927 6.09002 17.0837 7.16307 16.2658 8.07819C15.4478 8.99332 14.4315 9.52377 13.2167 9.66955C12.9252 10.4146 12.4676 11.0341 11.844 11.5281C11.2204 12.0222 10.5118 12.3582 9.71817 12.5364V15.549H13.6054V17.4927H3.88727ZM3.88727 7.58014V3.88723H1.94363V4.85905C1.94363 5.47453 2.1218 6.02928 2.47813 6.52329C2.83447 7.01729 3.30418 7.36958 3.88727 7.58014ZM8.74636 10.69C8.74636 10.69 8.94882 10.69 9.35374 10.69C9.75867 10.69 10.2446 10.4065 10.8115 9.83961C11.3784 9.27272 11.6618 8.58435 11.6618 7.7745V1.9436H5.8309V7.7745C5.8309 8.58435 6.11435 9.27272 6.68124 9.83961C7.24814 10.4065 7.93651 10.69 8.74636 10.69ZM13.6054 7.58014C14.1885 7.36958 14.6582 7.01729 15.0146 6.52329C15.3709 6.02928 15.5491 5.47453 15.5491 4.85905V3.88723H13.6054V7.58014Z" fill="#94A3B8"/>
</svg>
