<svg width="16" height="21" viewBox="0 0 16 21" fill="none" xmlns="http://www.w3.org/2000/svg">
<path d="M5.51506 11.3703L6.3654 8.60062L4.13022 6.80276H6.8999L7.77454 4.08167L8.64918 6.80276H11.4189L9.15938 8.60062L10.0097 11.3703L7.77454 9.64532L5.51506 11.3703ZM1.94363 20.4082V12.9009C1.32815 12.2206 0.85034 11.4432 0.510204 10.5686C0.170068 9.69392 0 8.76259 0 7.77458C0 5.60418 0.753159 3.76583 2.25948 2.25951C3.76579 0.753195 5.60415 3.62396e-05 7.77454 3.62396e-05C9.94493 3.62396e-05 11.7833 0.753195 13.2896 2.25951C14.7959 3.76583 15.5491 5.60418 15.5491 7.77458C15.5491 8.76259 15.379 9.69392 15.0389 10.5686C14.6987 11.4432 14.2209 12.2206 13.6054 12.9009V20.4082L7.77454 18.4646L1.94363 20.4082ZM7.77454 13.6055C7.77454 13.6055 8.17946 13.6055 8.98931 13.6055C9.79916 13.6055 10.771 13.0386 11.9048 11.9048C13.0386 10.771 13.6054 9.39427 13.6054 7.77458C13.6054 6.15488 13.0386 4.77814 11.9048 3.64435C10.771 2.51056 9.39424 1.94367 7.77454 1.94367C6.15484 1.94367 4.7781 2.51056 3.64432 3.64435C2.51053 4.77814 1.94363 6.15488 1.94363 7.77458C1.94363 9.39427 2.51053 10.771 3.64432 11.9048C4.7781 13.0386 6.15484 13.6055 7.77454 13.6055ZM3.88727 17.517L7.77454 16.5209L11.6618 17.517V14.5044C11.0949 14.8284 10.4835 15.0835 9.8275 15.2697C9.17153 15.456 8.48721 15.5491 7.77454 15.5491C7.06187 15.5491 6.37755 15.456 5.72158 15.2697C5.0656 15.0835 4.45416 14.8284 3.88727 14.5044V17.517Z" fill="#94A3B8"/>
</svg>
