<svg width="25" height="28" viewBox="0 0 25 28" fill="none" xmlns="http://www.w3.org/2000/svg">
<path d="M6.17697 15.9445H17.8436V14H6.17697V15.9445ZM6.17697 13.0278H17.8436V11.0833H6.17697V13.0278ZM6.17697 10.1111H17.8436V8.16667H6.17697V10.1111ZM21.7325 23.7222L17.8436 19.8333H4.23253C3.69781 19.8333 3.24005 19.6429 2.85927 19.2622C2.47848 18.8814 2.28809 18.4236 2.28809 17.8889V6.22223C2.28809 5.68751 2.47848 5.22975 2.85927 4.84896C3.24005 4.46818 3.69781 4.27778 4.23253 4.27778H19.7881C20.3228 4.27778 20.7806 4.46818 21.1614 4.84896C21.5421 5.22975 21.7325 5.68751 21.7325 6.22223V23.7222ZM4.23253 17.8889H18.67L19.7881 18.9826V6.22223H4.23253V17.8889Z" fill="#93CCFF"/>
</svg>
