<svg width="25" height="28" viewBox="0 0 25 28" fill="none" xmlns="http://www.w3.org/2000/svg">
<path d="M12.0103 22.75L10.6006 21.4861C8.96401 20.0116 7.611 18.7396 6.54156 17.6701C5.47211 16.6007 4.62142 15.6406 3.98947 14.7899C3.35753 13.9392 2.91598 13.1574 2.66482 12.4444C2.41366 11.7315 2.28809 11.0023 2.28809 10.2569C2.28809 8.7338 2.7985 7.46181 3.81934 6.44097C4.84017 5.42014 6.11216 4.90972 7.63531 4.90972C8.4779 4.90972 9.27998 5.08796 10.0416 5.44444C10.8031 5.80093 11.4594 6.30324 12.0103 6.95139C12.5612 6.30324 13.2175 5.80093 13.9791 5.44444C14.7406 5.08796 15.5427 4.90972 16.3853 4.90972C17.9085 4.90972 19.1804 5.42014 20.2013 6.44097C21.2221 7.46181 21.7325 8.7338 21.7325 10.2569C21.7325 11.0023 21.607 11.7315 21.3558 12.4444C21.1046 13.1574 20.6631 13.9392 20.0311 14.7899C19.3992 15.6406 18.5485 16.6007 17.4791 17.6701C16.4096 18.7396 15.0566 20.0116 13.42 21.4861L12.0103 22.75ZM12.0103 20.125C13.5659 18.7315 14.846 17.5365 15.8506 16.5399C16.8552 15.5434 17.6492 14.6765 18.2325 13.9392C18.8159 13.202 19.221 12.5457 19.4478 11.9705C19.6747 11.3953 19.7881 10.8241 19.7881 10.2569C19.7881 9.28472 19.464 8.47454 18.8159 7.82639C18.1677 7.17824 17.3575 6.85417 16.3853 6.85417C15.6237 6.85417 14.9189 7.06887 14.2707 7.49826C13.6226 7.92766 13.177 8.47454 12.9339 9.13889H11.0867C10.8436 8.47454 10.398 7.92766 9.74989 7.49826C9.10174 7.06887 8.39688 6.85417 7.63531 6.85417C6.66309 6.85417 5.8529 7.17824 5.20475 7.82639C4.5566 8.47454 4.23253 9.28472 4.23253 10.2569C4.23253 10.8241 4.34596 11.3953 4.57281 11.9705C4.79966 12.5457 5.20475 13.202 5.78809 13.9392C6.37142 14.6765 7.1654 15.5434 8.17003 16.5399C9.17466 17.5365 10.4548 18.7315 12.0103 20.125Z" fill="#D8B9FF"/>
</svg>
