<svg width="15" height="16" viewBox="0 0 15 16" fill="none" xmlns="http://www.w3.org/2000/svg">
<path d="M8.83699 10.6036L9.61421 9.82633L7.56012 7.77224V5.21851H6.4498V8.21637L8.83699 10.6036ZM7.00496 13.5459C6.23699 13.5459 5.51528 13.4002 4.83984 13.1087C4.1644 12.8173 3.57685 12.4217 3.07721 11.9221C2.57757 11.4224 2.18202 10.8349 1.89056 10.1594C1.5991 9.48398 1.45337 8.76228 1.45337 7.99431C1.45337 7.22634 1.5991 6.50463 1.89056 5.82919C2.18202 5.15374 2.57757 4.5662 3.07721 4.06655C3.57685 3.56691 4.1644 3.17136 4.83984 2.8799C5.51528 2.58844 6.23699 2.44271 7.00496 2.44271C7.77293 2.44271 8.49464 2.58844 9.17008 2.8799C9.84553 3.17136 10.4331 3.56691 10.9327 4.06655C11.4324 4.5662 11.8279 5.15374 12.1194 5.82919C12.4108 6.50463 12.5566 7.22634 12.5566 7.99431C12.5566 8.76228 12.4108 9.48398 12.1194 10.1594C11.8279 10.8349 11.4324 11.4224 10.9327 11.9221C10.4331 12.4217 9.84553 12.8173 9.17008 13.1087C8.49464 13.4002 7.77293 13.5459 7.00496 13.5459ZM7.00496 12.4356C8.23557 12.4356 9.28343 12.003 10.1486 11.1379C11.0137 10.2728 11.4462 9.22491 11.4462 7.99431C11.4462 6.7637 11.0137 5.71584 10.1486 4.85072C9.28343 3.98559 8.23557 3.55303 7.00496 3.55303C5.77436 3.55303 4.7265 3.98559 3.86137 4.85072C2.99625 5.71584 2.56369 6.7637 2.56369 7.99431C2.56369 9.22491 2.99625 10.2728 3.86137 11.1379C4.7265 12.003 5.77436 12.4356 7.00496 12.4356Z" fill="#94A3B8"/>
</svg>
