<svg width="29" height="34" viewBox="0 0 29 34" fill="none" xmlns="http://www.w3.org/2000/svg">
<path d="M11.0873 15.8269L9.97856 18.2195L7.58604 19.3282L9.97856 20.4369L11.0873 22.8294L12.196 20.4369L14.5885 19.3282L12.196 18.2195L11.0873 15.8269ZM18.0898 15.8269L17.3312 17.4025L15.7556 18.1611L17.3312 18.9197L18.0898 20.4953L18.8484 18.9197L20.424 18.1611L18.8484 17.4025L18.0898 15.8269ZM4.66833 7.65735L7.0025 12.3257H10.5038L8.16958 7.65735H10.5038L12.8379 12.3257H16.3392L14.005 7.65735H16.3392L18.6733 12.3257H22.1746L19.8404 7.65735H23.3417C23.9836 7.65735 24.5331 7.88591 24.9902 8.34302C25.4473 8.80012 25.6758 9.34963 25.6758 9.99152V23.9965C25.6758 24.6384 25.4473 25.1879 24.9902 25.645C24.5331 26.1021 23.9836 26.3307 23.3417 26.3307H4.66833C4.02644 26.3307 3.47694 26.1021 3.01983 25.645C2.56272 25.1879 2.33417 24.6384 2.33417 23.9965V9.99152C2.33417 9.34963 2.56272 8.80012 3.01983 8.34302C3.47694 7.88591 4.02644 7.65735 4.66833 7.65735ZM4.66833 14.6599V23.9965H23.3417V14.6599H4.66833Z" fill="#94A3B8"/>
</svg>
