<svg width="25" height="28" viewBox="0 0 25 28" fill="none" xmlns="http://www.w3.org/2000/svg">
<path d="M16.8714 23.7222C16.0612 23.7222 15.3726 23.4387 14.8054 22.8715C14.2383 22.3044 13.9548 21.6157 13.9548 20.8056C13.9548 20.7083 13.9791 20.4815 14.0277 20.125L7.19781 16.1389C6.93855 16.382 6.63878 16.5723 6.2985 16.7101C5.95822 16.8478 5.59364 16.9167 5.20475 16.9167C4.39457 16.9167 3.70591 16.6331 3.13878 16.066C2.57165 15.4988 2.28809 14.8102 2.28809 14C2.28809 13.1898 2.57165 12.5012 3.13878 11.934C3.70591 11.3669 4.39457 11.0833 5.20475 11.0833C5.59364 11.0833 5.95822 11.1522 6.2985 11.2899C6.63878 11.4277 6.93855 11.6181 7.19781 11.8611L14.0277 7.87501C13.9953 7.76158 13.975 7.65221 13.9669 7.54688C13.9588 7.44156 13.9548 7.32408 13.9548 7.19445C13.9548 6.38427 14.2383 5.69561 14.8054 5.12848C15.3726 4.56135 16.0612 4.27778 16.8714 4.27778C17.6816 4.27778 18.3703 4.56135 18.9374 5.12848C19.5045 5.69561 19.7881 6.38427 19.7881 7.19445C19.7881 8.00464 19.5045 8.69329 18.9374 9.26042C18.3703 9.82755 17.6816 10.1111 16.8714 10.1111C16.4825 10.1111 16.1179 10.0423 15.7777 9.90452C15.4374 9.76679 15.1376 9.5764 14.8784 9.33334L8.0485 13.3195C8.08091 13.4329 8.10116 13.5423 8.10927 13.6476C8.11737 13.7529 8.12142 13.8704 8.12142 14C8.12142 14.1296 8.11737 14.2471 8.10927 14.3524C8.10116 14.4578 8.08091 14.5671 8.0485 14.6806L14.8784 18.6667C15.1376 18.4236 15.4374 18.2332 15.7777 18.0955C16.1179 17.9578 16.4825 17.8889 16.8714 17.8889C17.6816 17.8889 18.3703 18.1725 18.9374 18.7396C19.5045 19.3067 19.7881 19.9954 19.7881 20.8056C19.7881 21.6157 19.5045 22.3044 18.9374 22.8715C18.3703 23.4387 17.6816 23.7222 16.8714 23.7222ZM16.8714 21.7778C17.1469 21.7778 17.3778 21.6846 17.5641 21.4983C17.7505 21.3119 17.8436 21.081 17.8436 20.8056C17.8436 20.5301 17.7505 20.2992 17.5641 20.1129C17.3778 19.9265 17.1469 19.8333 16.8714 19.8333C16.596 19.8333 16.3651 19.9265 16.1787 20.1129C15.9924 20.2992 15.8992 20.5301 15.8992 20.8056C15.8992 21.081 15.9924 21.3119 16.1787 21.4983C16.3651 21.6846 16.596 21.7778 16.8714 21.7778ZM5.20475 14.9722C5.48022 14.9722 5.71112 14.8791 5.89746 14.6927C6.0838 14.5064 6.17697 14.2755 6.17697 14C6.17697 13.7245 6.0838 13.4936 5.89746 13.3073C5.71112 13.121 5.48022 13.0278 5.20475 13.0278C4.92929 13.0278 4.69839 13.121 4.51204 13.3073C4.3257 13.4936 4.23253 13.7245 4.23253 14C4.23253 14.2755 4.3257 14.5064 4.51204 14.6927C4.69839 14.8791 4.92929 14.9722 5.20475 14.9722ZM16.8714 8.16667C16.8714 8.16667 16.9403 8.16667 17.078 8.16667C17.2157 8.16667 17.3778 8.0735 17.5641 7.88716C17.7505 7.70082 17.8436 7.46991 17.8436 7.19445C17.8436 6.91899 17.7505 6.68809 17.5641 6.50174C17.3778 6.3154 17.1469 6.22223 16.8714 6.22223C16.596 6.22223 16.3651 6.3154 16.1787 6.50174C15.9924 6.68809 15.8992 6.91899 15.8992 7.19445C15.8992 7.46991 15.9924 7.70082 16.1787 7.88716C16.3651 8.0735 16.596 8.16667 16.8714 8.16667Z" fill="#EFDBFC"/>
</svg>
